<svg height="512pt" viewBox="0 0 512 512" width="512pt" xmlns="http://www.w3.org/2000/svg" xmlns:xlink="http://www.w3.org/1999/xlink"><linearGradient id="a" gradientUnits="userSpaceOnUse" x1="0" x2="512" y1="256" y2="256"><stop offset="0" stop-color="#80d8ff"/><stop offset="1" stop-color="#ea80fc"/></linearGradient><path d="m256 0c-141.484375 0-256 114.496094-256 256 0 141.484375 114.496094 256 256 256 141.484375 0 256-114.496094 256-256 0-141.484375-114.496094-256-256-256zm0 472c-119.378906 0-216-96.605469-216-216 0-119.378906 96.605469-216 216-216 119.378906 0 216 96.605469 216 216 0 119.378906-96.605469 216-216 216zm113.148438-353.402344-157.332032 39.332032c-8.902344 2.226562-15.148437 10.226562-15.148437 19.402343v101.253907c-38.53125-13.320313-78.667969 15.503906-78.667969 56.082031 0 32.714843 26.617188 59.332031 59.332031 59.332031 32.71875 0 59.332031-26.617188 59.332031-59.332031v-141.71875l117.335938-29.332031v75.632812c-38.527344-13.316406-78.667969 15.503906-78.667969 56.082031 0 32.71875 26.617188 59.332031 59.335938 59.332031 32.714843 0 59.332031-26.613281 59.332031-59.332031v-157.332031c0-13.015625-12.253906-22.554688-24.851562-19.402344zm-191.816407 235.402344c-10.660156 0-19.332031-8.671875-19.332031-19.332031 0-10.660157 8.671875-19.332031 19.332031-19.332031 10.660157 0 19.332031 8.671874 19.332031 19.332031.003907 10.660156-8.671874 19.332031-19.332031 19.332031zm157.335938-39.332031c-10.660157 0-19.335938-8.675781-19.335938-19.332031 0-10.664063 8.675781-19.335938 19.335938-19.335938 10.660156 0 19.332031 8.675781 19.332031 19.335938 0 10.65625-8.671875 19.332031-19.332031 19.332031zm0 0" fill="url(#a)"/></svg>